<svg xmlns="http://www.w3.org/2000/svg" width="246.745" height="107.614" viewBox="0 0 246.745 107.614"><defs><style>.a{fill:#e27866;}.b{fill:#fff;}</style></defs><g transform="translate(3.934 94.949)"><path class="a" d="M9.365,82.317h1.33v9.5H9.365V87.429H4.72v4.385H3.39v-9.5H4.72v3.96H9.365Z" transform="translate(-3.39 -81.729)"/><path class="a" d="M11.256,92.816a2.307,2.307,0,0,0,.392.13,1.8,1.8,0,0,0,.472.062,1.856,1.856,0,0,0,1.179-.337,2.891,2.891,0,0,0,.768-1.089q-.865-1.645-1.611-3.488a30.542,30.542,0,0,1-1.241-3.735h1.371q.151.616.363,1.33t.472,1.466q.261.754.562,1.509c.2.5.412.987.63,1.452q.521-1.44.905-2.852t.725-2.9h1.316q-.493,2.014-1.1,3.871t-1.3,3.475a7.336,7.336,0,0,1-.569,1.063,3.172,3.172,0,0,1-.652.732,2.344,2.344,0,0,1-.8.425,3.413,3.413,0,0,1-1.009.138,2.488,2.488,0,0,1-.315-.021c-.109-.014-.217-.032-.32-.055s-.2-.049-.29-.077a1.181,1.181,0,0,1-.185-.067Z" transform="translate(-2.164 -81.4)"/><path class="a" d="M22.513,90.8a3.491,3.491,0,0,1-.637.281,3.225,3.225,0,0,1-1.1.172,3.566,3.566,0,0,1-1.212-.205,2.64,2.64,0,0,1-.995-.638,3.079,3.079,0,0,1-.671-1.075,4.285,4.285,0,0,1-.247-1.535,4.216,4.216,0,0,1,.233-1.431,3.2,3.2,0,0,1,.678-1.125,3.123,3.123,0,0,1,1.09-.74,3.764,3.764,0,0,1,1.452-.266,8.259,8.259,0,0,1,1.555.129c.443.088.816.167,1.118.24V90.96a3.006,3.006,0,0,1-.85,2.385,3.838,3.838,0,0,1-2.577.74,6.89,6.89,0,0,1-1.267-.11,7.191,7.191,0,0,1-1.035-.259l.233-1.111a5.655,5.655,0,0,0,.939.266,5.537,5.537,0,0,0,1.158.117,2.412,2.412,0,0,0,1.638-.453,1.852,1.852,0,0,0,.5-1.439v-.3Zm-.013-5.29a3.985,3.985,0,0,0-.515-.1,6.116,6.116,0,0,0-.869-.048,1.939,1.939,0,0,0-1.583.671,2.706,2.706,0,0,0-.555,1.782,3.151,3.151,0,0,0,.157,1.056,2.094,2.094,0,0,0,.426.725,1.65,1.65,0,0,0,.615.425,1.98,1.98,0,0,0,.72.137,2.88,2.88,0,0,0,.932-.144,2.32,2.32,0,0,0,.672-.335V85.505Z" transform="translate(-1.1 -81.421)"/><path class="a" d="M25.713,83.481a.813.813,0,0,1-.581-.226.894.894,0,0,1,0-1.22.865.865,0,0,1,1.164,0,.894.894,0,0,1,0,1.22A.82.82,0,0,1,25.713,83.481Zm.644,8.414H25.081V84.77h1.276Z" transform="translate(0.063 -81.81)"/><path class="a" d="M27.94,87.962a4.549,4.549,0,0,1,.274-1.65,3.427,3.427,0,0,1,.727-1.172,2.97,2.97,0,0,1,1.041-.7,3.248,3.248,0,0,1,1.206-.233,2.745,2.745,0,0,1,2.206.9,4.128,4.128,0,0,1,.768,2.733v.212a2.125,2.125,0,0,1-.014.239H29.269a2.6,2.6,0,0,0,.644,1.686,2.358,2.358,0,0,0,1.755.577,4.664,4.664,0,0,0,1.13-.117,4.021,4.021,0,0,0,.693-.226l.179,1.069a3.723,3.723,0,0,1-.816.261,5.853,5.853,0,0,1-1.323.137,4.206,4.206,0,0,1-1.611-.281A3,3,0,0,1,28.8,90.62a3.176,3.176,0,0,1-.652-1.171A5,5,0,0,1,27.94,87.962Zm4.893-.7a2.142,2.142,0,0,0-.432-1.418,1.491,1.491,0,0,0-1.228-.555,1.667,1.667,0,0,0-.773.172,1.782,1.782,0,0,0-.569.446,2.034,2.034,0,0,0-.363.629,3.137,3.137,0,0,0-.171.725h3.535Z" transform="translate(0.553 -81.425)"/><path class="a" d="M35.11,84.586q.439-.11,1.165-.233a10.069,10.069,0,0,1,1.672-.122,3.617,3.617,0,0,1,1.412.239,2.216,2.216,0,0,1,.9.672,2.594,2.594,0,0,1,.474,1.034,6.067,6.067,0,0,1,.137,1.33v4H39.593V87.779a6.082,6.082,0,0,0-.089-1.122,1.9,1.9,0,0,0-.295-.753,1.158,1.158,0,0,0-.549-.419,2.409,2.409,0,0,0-.85-.13c-.138,0-.279,0-.425.013s-.286.021-.418.035-.252.029-.356.048-.181.033-.225.042v6.015H35.11Z" transform="translate(1.705 -81.421)"/><path class="a" d="M41.8,87.962a4.524,4.524,0,0,1,.274-1.65,3.443,3.443,0,0,1,.725-1.172,2.97,2.97,0,0,1,1.041-.7,3.256,3.256,0,0,1,1.206-.233,2.748,2.748,0,0,1,2.207.9,4.128,4.128,0,0,1,.767,2.733v.212a2.14,2.14,0,0,1-.013.239H43.134a2.591,2.591,0,0,0,.644,1.686,2.355,2.355,0,0,0,1.755.577,4.67,4.67,0,0,0,1.13-.117,4.056,4.056,0,0,0,.693-.226l.178,1.069a3.746,3.746,0,0,1-.816.261,5.856,5.856,0,0,1-1.323.137,4.214,4.214,0,0,1-1.611-.281,3.013,3.013,0,0,1-1.117-.775,3.157,3.157,0,0,1-.651-1.171A4.96,4.96,0,0,1,41.8,87.962Zm4.893-.7a2.143,2.143,0,0,0-.433-1.418,1.491,1.491,0,0,0-1.227-.555,1.675,1.675,0,0,0-.774.172,1.8,1.8,0,0,0-.569.446,2.009,2.009,0,0,0-.362.629,3.022,3.022,0,0,0-.171.725H46.7Z" transform="translate(2.78 -81.425)"/><path class="a" d="M53.854,90.9q2.082,0,2.082-1.425a1.427,1.427,0,0,0-.185-.749,1.765,1.765,0,0,0-.5-.534,3.5,3.5,0,0,0-.72-.39c-.268-.11-.555-.219-.857-.33a8.674,8.674,0,0,1-.987-.4,3.409,3.409,0,0,1-.809-.534,2.252,2.252,0,0,1-.542-.734,2.409,2.409,0,0,1-.2-1.027,2.381,2.381,0,0,1,.85-1.946,3.585,3.585,0,0,1,2.343-.7,6.11,6.11,0,0,1,1.57.187,3.533,3.533,0,0,1,1.034.4L56.512,83.8a3.75,3.75,0,0,0-.857-.349,4.58,4.58,0,0,0-1.323-.172,2.884,2.884,0,0,0-.713.084,1.829,1.829,0,0,0-.574.246,1.242,1.242,0,0,0-.392.419,1.193,1.193,0,0,0-.144.6,1.26,1.26,0,0,0,.151.644,1.485,1.485,0,0,0,.425.46,3.588,3.588,0,0,0,.637.363c.241.11.508.218.8.328.411.165.789.331,1.13.494a3.729,3.729,0,0,1,.891.59,2.352,2.352,0,0,1,.583.816,2.859,2.859,0,0,1,.207,1.143,2.242,2.242,0,0,1-.912,1.92,4.276,4.276,0,0,1-2.57.671,6.666,6.666,0,0,1-1.036-.075,7.676,7.676,0,0,1-.843-.179,4.977,4.977,0,0,1-.637-.218c-.179-.078-.317-.145-.418-.2l.4-1.1a5.953,5.953,0,0,0,.959.4A4.982,4.982,0,0,0,53.854,90.9Z" transform="translate(4.244 -81.759)"/><path class="a" d="M57.813,87.962a4.524,4.524,0,0,1,.274-1.65,3.443,3.443,0,0,1,.725-1.172,2.969,2.969,0,0,1,1.042-.7,3.248,3.248,0,0,1,1.206-.233,2.745,2.745,0,0,1,2.206.9,4.128,4.128,0,0,1,.768,2.733v.212a2.13,2.13,0,0,1-.014.239H59.142a2.6,2.6,0,0,0,.644,1.686,2.355,2.355,0,0,0,1.755.577,4.671,4.671,0,0,0,1.13-.117,4.021,4.021,0,0,0,.693-.226l.178,1.069a3.73,3.73,0,0,1-.815.261,5.853,5.853,0,0,1-1.323.137,4.21,4.21,0,0,1-1.611-.281,3.013,3.013,0,0,1-1.117-.775,3.157,3.157,0,0,1-.651-1.171A4.959,4.959,0,0,1,57.813,87.962Zm4.893-.7a2.142,2.142,0,0,0-.432-1.418,1.491,1.491,0,0,0-1.228-.555,1.675,1.675,0,0,0-.774.172,1.777,1.777,0,0,0-.568.446,1.989,1.989,0,0,0-.363.629,3.14,3.14,0,0,0-.172.725h3.536Z" transform="translate(5.351 -81.425)"/><path class="a" d="M67.615,84.23a3.535,3.535,0,0,1,.376.021c.142.013.282.031.418.055s.263.046.376.068.2.043.254.062l-.219,1.111a4.087,4.087,0,0,0-1.4-.205,3.357,3.357,0,0,0-.706.074c-.233.05-.387.086-.458.1v5.989H64.982V84.683a8.584,8.584,0,0,1,1.125-.309A7.218,7.218,0,0,1,67.615,84.23Z" transform="translate(6.502 -81.421)"/><path class="a" d="M75.9,84.36A36.41,36.41,0,0,1,74.644,88.2q-.721,1.837-1.392,3.288H72.1q-.672-1.45-1.39-3.288a35.886,35.886,0,0,1-1.253-3.838h1.369q.164.67.391,1.432T71.7,87.3c.169.5.34.978.513,1.445s.339.881.493,1.248c.156-.366.319-.78.494-1.248s.345-.947.513-1.445.33-1,.48-1.508.281-.985.39-1.432Z" transform="translate(7.221 -81.4)"/><path class="a" d="M77.089,83.481a.818.818,0,0,1-.583-.226.894.894,0,0,1,0-1.22.866.866,0,0,1,1.165,0,.9.9,0,0,1,0,1.22A.822.822,0,0,1,77.089,83.481Zm.644,8.414H76.457V84.77h1.276Z" transform="translate(8.315 -81.81)"/><path class="a" d="M82.8,91.675A3.911,3.911,0,0,1,81.29,91.4a3.065,3.065,0,0,1-1.1-.768,3.208,3.208,0,0,1-.664-1.171,4.867,4.867,0,0,1-.218-1.5,4.533,4.533,0,0,1,.239-1.508,3.569,3.569,0,0,1,.679-1.186,3.02,3.02,0,0,1,1.075-.78,3.492,3.492,0,0,1,1.418-.282,5.728,5.728,0,0,1,.961.082,4.507,4.507,0,0,1,.918.261l-.287,1.082a3.054,3.054,0,0,0-.666-.218,3.76,3.76,0,0,0-.8-.082A2.034,2.034,0,0,0,81.209,86a2.961,2.961,0,0,0-.569,1.959,4.018,4.018,0,0,0,.131,1.056,2.148,2.148,0,0,0,.411.822,1.828,1.828,0,0,0,.718.527,2.738,2.738,0,0,0,1.069.186,4.054,4.054,0,0,0,.918-.1,3.3,3.3,0,0,0,.645-.205l.179,1.069a1.336,1.336,0,0,1-.316.131,4.343,4.343,0,0,1-.465.109c-.173.031-.359.059-.555.082S82.988,91.675,82.8,91.675Z" transform="translate(8.804 -81.425)"/><path class="a" d="M84.983,87.962a4.524,4.524,0,0,1,.274-1.65,3.427,3.427,0,0,1,.727-1.172,2.954,2.954,0,0,1,1.042-.7,3.247,3.247,0,0,1,1.206-.233,2.745,2.745,0,0,1,2.206.9,4.128,4.128,0,0,1,.768,2.733v.212a1.878,1.878,0,0,1-.014.239H86.313a2.6,2.6,0,0,0,.644,1.686,2.355,2.355,0,0,0,1.755.577,4.67,4.67,0,0,0,1.13-.117,4.021,4.021,0,0,0,.693-.226l.178,1.069a3.745,3.745,0,0,1-.816.261,5.854,5.854,0,0,1-1.323.137,4.214,4.214,0,0,1-1.611-.281,3.012,3.012,0,0,1-1.117-.775,3.156,3.156,0,0,1-.651-1.171A4.959,4.959,0,0,1,84.983,87.962Zm4.893-.7a2.142,2.142,0,0,0-.432-1.418,1.493,1.493,0,0,0-1.228-.555,1.675,1.675,0,0,0-.774.172,1.782,1.782,0,0,0-.569.446,1.99,1.99,0,0,0-.363.629,3.078,3.078,0,0,0-.171.725h3.536Z" transform="translate(9.715 -81.425)"/><path class="a" d="M93.886,90.593a2.527,2.527,0,0,0,1.157-.2.7.7,0,0,0,.377-.658.873.873,0,0,0-.37-.74,5.858,5.858,0,0,0-1.22-.617c-.274-.11-.537-.222-.788-.337a2.751,2.751,0,0,1-.652-.4,1.744,1.744,0,0,1-.439-.561,2,2,0,0,1,.535-2.31,2.987,2.987,0,0,1,1.9-.555,5.261,5.261,0,0,1,.6.035c.2.023.388.05.562.082s.326.066.46.1.234.07.309.1l-.234,1.1a3.306,3.306,0,0,0-.644-.225,4.151,4.151,0,0,0-1.056-.117,1.935,1.935,0,0,0-.932.214.705.705,0,0,0-.4.665.911.911,0,0,0,.091.411.955.955,0,0,0,.274.321,2.172,2.172,0,0,0,.46.267c.181.082.4.169.657.261.338.127.64.253.9.376a2.781,2.781,0,0,1,.679.433,1.653,1.653,0,0,1,.432.6,2.171,2.171,0,0,1,.151.857,1.7,1.7,0,0,1-.732,1.494,3.65,3.65,0,0,1-2.09.507,5.447,5.447,0,0,1-1.481-.158,7.2,7.2,0,0,1-.725-.24l.232-1.1c.146.056.381.137.7.246A4.041,4.041,0,0,0,93.886,90.593Z" transform="translate(10.79 -81.425)"/></g><g transform="translate(0 58.55)"><path class="b" d="M12.106,79.476a13.157,13.157,0,0,1-4.938-.891,10.479,10.479,0,0,1-3.824-2.6A11.7,11.7,0,0,1,.874,71.77,17.366,17.366,0,0,1,0,66.034,15.617,15.617,0,0,1,.984,60.3,12.44,12.44,0,0,1,3.64,56.082a11.249,11.249,0,0,1,3.9-2.6,12.678,12.678,0,0,1,4.753-.893,16.878,16.878,0,0,1,2.877.223,17.773,17.773,0,0,1,2.228.52,10.748,10.748,0,0,1,1.541.594,8.968,8.968,0,0,1,.817.446l-1.04,2.97a5.946,5.946,0,0,0-.966-.483q-.632-.259-1.43-.52a13.029,13.029,0,0,0-1.746-.427,10.968,10.968,0,0,0-1.912-.167,9.192,9.192,0,0,0-3.677.706A7.615,7.615,0,0,0,6.2,58.495a9.239,9.239,0,0,0-1.764,3.249,14.014,14.014,0,0,0-.612,4.288,15.327,15.327,0,0,0,.537,4.2,9.192,9.192,0,0,0,1.616,3.25,7.259,7.259,0,0,0,2.693,2.1,8.936,8.936,0,0,0,3.77.742,13.806,13.806,0,0,0,4.121-.519,18,18,0,0,0,2.451-.929l.928,2.97a5.17,5.17,0,0,1-.928.464,12.508,12.508,0,0,1-1.671.539,21.311,21.311,0,0,1-2.34.446A20.671,20.671,0,0,1,12.106,79.476Z" transform="translate(0 -50.104)"/><path class="b" d="M18.912,79.263V51.042l3.454-.594v9.877a11.685,11.685,0,0,1,2.06-.576,11.861,11.861,0,0,1,2.173-.2,9.77,9.77,0,0,1,3.824.65,5.988,5.988,0,0,1,2.433,1.819,7.073,7.073,0,0,1,1.281,2.8,16.294,16.294,0,0,1,.37,3.6V79.263H31.053v-10.1a16.46,16.46,0,0,0-.241-3.045,5.144,5.144,0,0,0-.8-2.042,3.174,3.174,0,0,0-1.486-1.134,6.52,6.52,0,0,0-2.3-.353,9.23,9.23,0,0,0-1.152.075c-.4.049-.774.106-1.133.166s-.681.13-.966.205a5.58,5.58,0,0,0-.612.186V79.263Z" transform="translate(3.037 -50.448)"/><path class="b" d="M34.625,68.4a12.31,12.31,0,0,1,.742-4.474,9.371,9.371,0,0,1,1.968-3.175,7.977,7.977,0,0,1,2.823-1.893,8.807,8.807,0,0,1,3.267-.631A7.439,7.439,0,0,1,49.4,60.655q2.079,2.432,2.08,7.409v.576a5.325,5.325,0,0,1-.037.65H38.228a7.062,7.062,0,0,0,1.746,4.568,6.386,6.386,0,0,0,4.753,1.559A12.7,12.7,0,0,0,47.79,75.1a10.993,10.993,0,0,0,1.874-.613l.483,2.9a10.181,10.181,0,0,1-2.21.706,15.715,15.715,0,0,1-3.583.371,11.364,11.364,0,0,1-4.363-.761,8.126,8.126,0,0,1-3.026-2.1A8.571,8.571,0,0,1,35.2,72.429,13.392,13.392,0,0,1,34.625,68.4ZM47.881,66.5a5.8,5.8,0,0,0-1.17-3.844,4.031,4.031,0,0,0-3.324-1.5,4.55,4.55,0,0,0-2.1.464,4.947,4.947,0,0,0-1.54,1.208,5.526,5.526,0,0,0-.984,1.707A8.415,8.415,0,0,0,38.3,66.5Z" transform="translate(5.561 -49.199)"/><path class="b" d="M56.357,75.526a6.8,6.8,0,0,0,3.138-.557,1.885,1.885,0,0,0,1.021-1.782,2.366,2.366,0,0,0-1-2.006,15.938,15.938,0,0,0-3.305-1.671q-1.116-.444-2.136-.91a7.482,7.482,0,0,1-1.763-1.1,4.752,4.752,0,0,1-1.188-1.523,4.859,4.859,0,0,1-.446-2.191,4.918,4.918,0,0,1,1.893-4.066,8.087,8.087,0,0,1,5.161-1.5,14.567,14.567,0,0,1,1.634.093q.816.094,1.523.223c.47.087.884.181,1.244.279s.637.186.836.26l-.631,2.971a8.72,8.72,0,0,0-1.746-.612,11.223,11.223,0,0,0-2.859-.317,5.283,5.283,0,0,0-2.524.576,1.909,1.909,0,0,0-1.077,1.8,2.444,2.444,0,0,0,.241,1.113,2.571,2.571,0,0,0,.744.873,6.087,6.087,0,0,0,1.243.725q.743.334,1.783.7,1.374.521,2.45,1.021A7.68,7.68,0,0,1,62.43,69.1a4.508,4.508,0,0,1,1.17,1.616,5.866,5.866,0,0,1,.409,2.321,4.6,4.6,0,0,1-1.987,4.047,9.89,9.89,0,0,1-5.663,1.374,14.817,14.817,0,0,1-4.011-.427,20.456,20.456,0,0,1-1.968-.651l.631-2.97q.594.223,1.894.669A10.92,10.92,0,0,0,56.357,75.526Z" transform="translate(8.091 -49.199)"/><path class="b" d="M64.226,79.263V51.042l3.454-.594v9.877a11.686,11.686,0,0,1,2.06-.576,11.861,11.861,0,0,1,2.173-.2,9.77,9.77,0,0,1,3.824.65,5.988,5.988,0,0,1,2.433,1.819,7.073,7.073,0,0,1,1.281,2.8,16.294,16.294,0,0,1,.37,3.6V79.263H76.367v-10.1a16.46,16.46,0,0,0-.241-3.045,5.144,5.144,0,0,0-.8-2.042,3.174,3.174,0,0,0-1.486-1.134,6.52,6.52,0,0,0-2.3-.353,9.244,9.244,0,0,0-1.152.075c-.4.049-.774.106-1.133.166s-.681.13-.966.205a5.577,5.577,0,0,0-.612.186V79.263Z" transform="translate(10.315 -50.448)"/><path class="b" d="M82.55,56.258a2.215,2.215,0,0,1-1.578-.613,2.425,2.425,0,0,1,0-3.3,2.339,2.339,0,0,1,3.157,0,2.425,2.425,0,0,1,0,3.3A2.212,2.212,0,0,1,82.55,56.258Zm1.746,22.8H80.842V59.749H84.3V79.058Z" transform="translate(12.901 -50.242)"/><path class="b" d="M94.231,58.288c.3,0,.637.017,1.021.055s.761.087,1.134.149.711.123,1.02.186a6.664,6.664,0,0,1,.687.167L97.5,61.852a11.63,11.63,0,0,0-1.354-.353,11.92,11.92,0,0,0-2.433-.2,9.061,9.061,0,0,0-1.913.2q-.947.205-1.243.279V78H87.1V59.512a23.683,23.683,0,0,1,3.045-.836A19.546,19.546,0,0,1,94.231,58.288Z" transform="translate(13.99 -49.189)"/><path class="b" d="M96.617,68.4a12.309,12.309,0,0,1,.743-4.474,9.369,9.369,0,0,1,1.967-3.175,7.977,7.977,0,0,1,2.823-1.893,8.807,8.807,0,0,1,3.267-.631,7.435,7.435,0,0,1,5.978,2.431q2.08,2.432,2.08,7.409v.576a5.321,5.321,0,0,1-.037.65H100.218a7.061,7.061,0,0,0,1.746,4.568,6.386,6.386,0,0,0,4.753,1.559,12.7,12.7,0,0,0,3.064-.315,10.992,10.992,0,0,0,1.874-.613l.483,2.9a10.2,10.2,0,0,1-2.21.706,15.715,15.715,0,0,1-3.583.371,11.364,11.364,0,0,1-4.363-.761,8.121,8.121,0,0,1-3.027-2.1,8.571,8.571,0,0,1-1.764-3.175A13.467,13.467,0,0,1,96.617,68.4ZM109.875,66.5A5.806,5.806,0,0,0,108.7,62.66a4.031,4.031,0,0,0-3.324-1.5,4.55,4.55,0,0,0-2.1.464,4.947,4.947,0,0,0-1.54,1.208,5.553,5.553,0,0,0-.985,1.707,8.414,8.414,0,0,0-.464,1.968Z" transform="translate(15.518 -49.199)"/><path class="b" d="M131.022,79.476a13.162,13.162,0,0,1-4.938-.891,10.513,10.513,0,0,1-3.825-2.6,11.677,11.677,0,0,1-2.469-4.215,17.376,17.376,0,0,1-.873-5.736A15.594,15.594,0,0,1,119.9,60.3a12.437,12.437,0,0,1,2.654-4.215,11.259,11.259,0,0,1,3.9-2.6,12.674,12.674,0,0,1,4.753-.893,16.893,16.893,0,0,1,2.878.223,17.75,17.75,0,0,1,2.227.52,10.691,10.691,0,0,1,1.541.594,9.128,9.128,0,0,1,.817.446l-1.04,2.97a5.946,5.946,0,0,0-.966-.483q-.63-.259-1.429-.52a13.116,13.116,0,0,0-1.746-.427,10.977,10.977,0,0,0-1.912-.167,9.192,9.192,0,0,0-3.677.706,7.6,7.6,0,0,0-2.784,2.043,9.26,9.26,0,0,0-1.765,3.249,14.014,14.014,0,0,0-.612,4.288,15.236,15.236,0,0,0,.54,4.2,9.19,9.19,0,0,0,1.614,3.25,7.268,7.268,0,0,0,2.693,2.1,8.932,8.932,0,0,0,3.77.742,13.811,13.811,0,0,0,4.121-.519,17.91,17.91,0,0,0,2.45-.929l.93,2.97a5.233,5.233,0,0,1-.93.464,12.489,12.489,0,0,1-1.67.539,21.312,21.312,0,0,1-2.34.446A20.7,20.7,0,0,1,131.022,79.476Z" transform="translate(19.099 -50.104)"/><path class="b" d="M154.667,68.361A12.2,12.2,0,0,1,154,72.519a9.557,9.557,0,0,1-1.876,3.194,8.25,8.25,0,0,1-2.877,2.06,9.508,9.508,0,0,1-7.279,0,8.244,8.244,0,0,1-2.877-2.06,9.538,9.538,0,0,1-1.876-3.194,13.232,13.232,0,0,1,0-8.3,9.489,9.489,0,0,1,1.876-3.213,8.239,8.239,0,0,1,2.877-2.06,9.508,9.508,0,0,1,7.279,0,8.275,8.275,0,0,1,2.877,2.06A9.52,9.52,0,0,1,154,64.221,12.252,12.252,0,0,1,154.667,68.361Zm-3.6,0a8.3,8.3,0,0,0-1.468-5.18,5.121,5.121,0,0,0-7.983,0,8.3,8.3,0,0,0-1.467,5.18,8.3,8.3,0,0,0,1.467,5.18,5.121,5.121,0,0,0,7.983,0A8.3,8.3,0,0,0,151.065,68.361Z" transform="translate(21.931 -49.199)"/><path class="b" d="M170.032,77.391q-1.191.3-3.136.63a26.988,26.988,0,0,1-4.514.334,9.574,9.574,0,0,1-3.75-.65,6.049,6.049,0,0,1-2.45-1.837,7.452,7.452,0,0,1-1.336-2.8,14.6,14.6,0,0,1-.41-3.583V58.639h3.455v10.1q0,3.529,1.113,5.051a4.34,4.34,0,0,0,3.751,1.523c.37,0,.752-.012,1.149-.037s.767-.056,1.115-.093.663-.075.947-.111a2.773,2.773,0,0,0,.612-.13v-16.3h3.453Z" transform="translate(24.804 -49.132)"/><path class="b" d="M171.23,59.252q1.187-.3,3.158-.63a27.277,27.277,0,0,1,4.529-.334,9.78,9.78,0,0,1,3.825.65,6.015,6.015,0,0,1,2.434,1.819,7.055,7.055,0,0,1,1.28,2.8,16.3,16.3,0,0,1,.37,3.6V78.007h-3.454v-10.1a16.461,16.461,0,0,0-.241-3.045,5.144,5.144,0,0,0-.8-2.042,3.185,3.185,0,0,0-1.486-1.134,6.519,6.519,0,0,0-2.3-.353c-.37,0-.755.014-1.152.037s-.773.057-1.132.093-.681.08-.966.13-.491.087-.614.111v16.3H171.23V59.252Z" transform="translate(27.501 -49.189)"/><path class="b" d="M191.138,59.466h7.317v2.9h-7.317v8.911a10.562,10.562,0,0,0,.225,2.4,3.587,3.587,0,0,0,.665,1.486,2.412,2.412,0,0,0,1.117.761,4.969,4.969,0,0,0,1.559.223,7.344,7.344,0,0,0,2.506-.353q.949-.353,1.318-.5l.67,2.859a12.975,12.975,0,0,1-1.819.651,10.359,10.359,0,0,1-2.972.389,9,9,0,0,1-3.25-.5,4.742,4.742,0,0,1-2.06-1.5A6.021,6.021,0,0,1,188,74.708a16.382,16.382,0,0,1-.316-3.4V54.082l3.453-.594v5.978Z" transform="translate(30.144 -49.96)"/><path class="b" d="M197.969,81.55a6.656,6.656,0,0,0,1.06.353,5.1,5.1,0,0,0,1.28.168,5.022,5.022,0,0,0,3.193-.911,7.849,7.849,0,0,0,2.08-2.951q-2.34-4.457-4.363-9.451a81.818,81.818,0,0,1-3.361-10.118h3.713q.409,1.67.985,3.6t1.28,3.973q.707,2.042,1.523,4.085t1.71,3.936q1.414-3.9,2.45-7.724t1.968-7.872h3.563q-1.337,5.459-2.969,10.491t-3.529,9.412a19.686,19.686,0,0,1-1.54,2.877,8.72,8.72,0,0,1-1.765,1.987,6.445,6.445,0,0,1-2.17,1.151,9.288,9.288,0,0,1-2.73.371,6.856,6.856,0,0,1-.853-.056c-.3-.037-.59-.087-.874-.147s-.546-.13-.781-.205a3.69,3.69,0,0,1-.5-.186Z" transform="translate(31.695 -49.132)"/></g><path class="a" d="M204.835,16.065a.654.654,0,0,0-.026-.12c-.069-.079.093,0-.247-.4l.007-.006a.609.609,0,0,0-.062-.058.644.644,0,0,0-.261-.152.845.845,0,0,0-.366-.073l-.065.008a.862.862,0,0,0-.159.023,4.053,4.053,0,0,0-.709.233,138.991,138.991,0,0,1-23.124,6.7,135.09,135.09,0,0,1-8.616-14.74c-1.057-2.1-1.862-3.829-2.407-5.035-.275-.6-.485-1.069-.635-1.4-.074-.167-.136-.294-.187-.4a.919.919,0,0,0-.093-.162.657.657,0,0,0-.1-.139c-.1-.038-.06-.256-.73-.349-.7.093-.663.31-.756.349a4.054,4.054,0,0,0-.431.814,138.766,138.766,0,0,1-11.6,21.06,135.88,135.88,0,0,1-16.355-4.28c-2.233-.736-4.027-1.392-5.289-1.86-.63-.237-1.127-.427-1.483-.558a3.559,3.559,0,0,0-.757-.241v0a1.289,1.289,0,0,0-.16-.017l-.02,0a.74.74,0,0,0-.352.066c-.031.013-.065.026-.1.042a1.181,1.181,0,0,0-.233.172.682.682,0,0,0-.174.232.841.841,0,0,0-.109.391c0,.062,0,.062,0,.066a3.087,3.087,0,0,0,.265.934,137.879,137.879,0,0,1,6.987,24.614c1.756,7.09,4.768,13.529,10.938,16.283a15.833,15.833,0,0,0,6.764,1.446,18.953,18.953,0,0,0,12.858-5.135A18.914,18.914,0,0,0,179.9,59.506a15.887,15.887,0,0,0,6.79-1.453c6.144-2.741,9.16-9.185,10.9-16.214a133.718,133.718,0,0,1,4.577-17.9c.736-2.233,1.386-4.027,1.862-5.288.231-.631.42-1.128.557-1.489a5.2,5.2,0,0,0,.227-.684.876.876,0,0,0,.034-.247v-.008h0A.6.6,0,0,0,204.835,16.065ZM179.088,24.56c2.614,4.335,4.422,8.749,4.414,12.851a12.7,12.7,0,0,1-.843,4.624c-1.661,4.75-6.828,9.194-13.352,9.951a18.944,18.944,0,0,0,4.177-11.773,15.814,15.814,0,0,0-1.46-6.793,14.706,14.706,0,0,0-3.466-4.756,30.065,30.065,0,0,1,10.118-4.269h0c.089-.017.175-.035.266-.051C178.99,24.418,179.039,24.488,179.088,24.56Zm-23.943-.215.228.043a30.123,30.123,0,0,1,10.163,4.279,14.824,14.824,0,0,0-3.485,4.781,15.8,15.8,0,0,0-1.447,6.765,18.921,18.921,0,0,0,4.184,11.775c-6.53-.756-11.7-5.2-13.348-9.924a12.733,12.733,0,0,1-.853-4.647c-.008-4.119,1.811-8.549,4.442-12.9C155.068,24.46,155.1,24.4,155.144,24.345Zm15.14,9.878a13.916,13.916,0,0,1,1.282,5.991,17.047,17.047,0,0,1-4.523,11.446,17.028,17.028,0,0,1-4.526-11.448,13.982,13.982,0,0,1,1.272-5.963,12.855,12.855,0,0,1,3.258-4.373A12.761,12.761,0,0,1,170.285,34.223ZM167.034,3.244a.232.232,0,0,0,.012-.024,139.684,139.684,0,0,0,10.75,19.433,30.777,30.777,0,0,0-10.747,4.732,30.8,30.8,0,0,0-10.759-4.731,137.245,137.245,0,0,0,8.3-14.308C165.665,6.214,166.479,4.461,167.034,3.244ZM148.226,56.322c-5.311-2.33-8.175-8.1-9.866-14.942a134.961,134.961,0,0,0-4.618-18.039c-.749-2.263-1.412-4.085-1.888-5.361-.021-.055-.039-.109-.059-.161a139.379,139.379,0,0,0,21.344,6.142c-2.594,4.4-4.464,8.939-4.471,13.455a14.636,14.636,0,0,0,.973,5.31c1.956,5.488,7.723,10.361,15.036,11.171a17.023,17.023,0,0,1-10.487,3.694A13.948,13.948,0,0,1,148.226,56.322Zm47.491-14.886c-1.674,6.788-4.545,12.553-9.828,14.871a13.988,13.988,0,0,1-5.99,1.284,17.013,17.013,0,0,1-10.49-3.7c7.312-.807,13.086-5.679,15.05-11.194a14.692,14.692,0,0,0,.96-5.29c-.008-4.534-1.888-9.084-4.468-13.454a137.852,137.852,0,0,0,15.821-4.194c2.264-.747,4.087-1.411,5.36-1.887l.166-.06A137.936,137.936,0,0,0,195.717,41.436Z" transform="translate(20.757)"/></svg>