<?xml version="1.0" encoding="UTF-8"?>
<!-- Generated by Pixelmator Pro 3.3.2 -->
<svg width="246" height="107" viewBox="0 0 246 107" xmlns="http://www.w3.org/2000/svg" xmlns:xlink="http://www.w3.org/1999/xlink">
    <g id="Group">
        <path id="Path" fill="#ffffff" stroke="none" d="M 12.106 87.307999 C 10.418082 87.330528 8.7416 87.02803 7.168 86.417 C 5.715629 85.845901 4.409157 84.957603 3.344 83.817001 C 2.233239 82.601463 1.39156 81.165154 0.874 79.601997 C 0.263056 77.752541 -0.0324 75.813484 0 73.865997 C -0.034054 71.909904 0.299737 69.964828 0.984 68.132004 C 1.575698 66.561211 2.479165 65.126419 3.64 63.914001 C 4.743015 62.783104 6.071858 61.897209 7.54 61.313999 C 9.052357 60.714111 10.666043 60.410931 12.293 60.421001 C 13.256608 60.413067 14.219125 60.487675 15.17 60.644001 C 15.923064 60.769302 16.667273 60.942997 17.398001 61.164001 C 17.926142 61.322186 18.441328 61.520771 18.938999 61.757999 C 19.21887 61.892426 19.491571 62.04129 19.756001 62.204002 L 18.716 65.173996 C 18.409319 64.984032 18.085985 64.822365 17.75 64.691002 C 17.328667 64.518333 16.852 64.345001 16.32 64.171005 C 15.748524 63.988644 15.165135 63.84597 14.574 63.743999 C 13.942771 63.632572 13.302989 63.576691 12.662 63.577 C 11.400877 63.557575 10.149249 63.79789 8.985 64.283005 C 7.912339 64.741989 6.959489 65.441315 6.2 66.326996 C 5.399111 67.28009 4.799101 68.385216 4.436 69.576004 C 4.011008 70.964981 3.804543 72.411591 3.824 73.863998 C 3.807827 75.282104 3.988551 76.695587 4.361 78.064003 C 4.678302 79.243973 5.227676 80.348839 5.977 81.314003 C 6.694893 82.218201 7.618105 82.938118 8.67 83.414001 C 9.857996 83.931778 11.144397 84.184959 12.44 84.155998 C 13.831979 84.191811 15.221366 84.01683 16.561001 83.637001 C 17.39949 83.387314 18.218662 83.07682 19.011999 82.708 L 19.940001 85.678001 C 19.647009 85.863396 19.336109 86.018845 19.011999 86.141998 C 18.468313 86.360588 17.909939 86.540695 17.341 86.681 C 16.569925 86.873177 15.788705 87.022079 15.001 87.126999 C 14.041429 87.255051 13.074048 87.315529 12.106 87.307999 Z"/>
        <path id="path1" fill="#ffffff" stroke="none" d="M 21.949001 86.750999 L 21.949001 58.529999 L 25.403 57.936001 L 25.403 67.813004 C 26.070612 67.558426 26.760168 67.365616 27.463001 67.237 C 28.179649 67.103699 28.907061 67.036751 29.636002 67.037003 C 30.941299 66.995911 32.241585 67.216934 33.459999 67.686996 C 34.413876 68.074112 35.251839 68.700607 35.892998 69.505997 C 36.520439 70.333939 36.957802 71.289917 37.174 72.306 C 37.430626 73.488541 37.554726 74.695984 37.543999 75.905998 L 37.543999 86.750999 L 34.09 86.750999 L 34.09 76.651001 C 34.104221 75.630722 34.02354 74.611336 33.848999 73.605995 C 33.73222 72.87574 33.459351 72.179245 33.049 71.563995 C 32.678726 71.045403 32.160934 70.650269 31.563 70.43 C 30.823704 70.175369 30.044632 70.055801 29.263 70.076996 C 28.877811 70.077942 28.493059 70.102982 28.111 70.152 C 27.711 70.201004 27.337 70.257996 26.978001 70.318001 C 26.619001 70.377998 26.297001 70.447998 26.012001 70.522995 C 25.804611 70.573242 25.600277 70.635345 25.400002 70.709 L 25.400002 86.750999 Z"/>
        <path id="path2" fill="#ffffff" stroke="none" d="M 40.186001 77.137001 C 40.154118 75.612579 40.40572 74.095512 40.928001 72.662994 C 41.364281 71.483322 42.033573 70.403534 42.896 69.487999 C 43.690079 68.661522 44.652935 68.015869 45.719002 67.595001 C 46.758015 67.178986 47.866798 66.964836 48.986 66.964005 C 51.243198 66.822998 53.441959 67.716492 54.961002 69.391998 C 56.347001 71.013336 57.040334 73.483004 57.041 76.801003 L 57.041 77.376999 C 57.041935 77.594215 57.029579 77.811287 57.004002 78.027 L 43.789001 78.027 C 43.808392 79.709015 44.42754 81.328873 45.535 82.595001 C 46.841423 83.739365 48.557587 84.302269 50.288002 84.153999 C 51.318081 84.172966 52.346638 84.066513 53.351002 83.836998 C 53.992767 83.689209 54.619957 83.484055 55.225002 83.223999 L 55.708 86.124001 C 55.000641 86.442772 54.259163 86.679642 53.498001 86.830002 C 52.321835 87.090591 51.119606 87.215073 49.915001 87.200996 C 48.424831 87.235931 46.942352 86.977348 45.552002 86.440002 C 44.395893 85.980843 43.360634 85.26239 42.526001 84.339996 C 41.717697 83.420219 41.115856 82.337929 40.761002 81.166 C 40.365192 79.860138 40.171288 78.50145 40.186001 77.137001 Z M 53.442001 75.237 C 53.522476 73.857193 53.107559 72.493996 52.271999 71.392998 C 51.466446 70.391739 50.231758 69.834564 48.948002 69.892998 C 48.220982 69.877632 47.500866 70.036743 46.848 70.356995 C 46.259338 70.653084 45.73576 71.063789 45.308002 71.565002 C 44.88039 72.070457 44.547092 72.648651 44.324001 73.272003 C 44.091373 73.906044 43.935921 74.565796 43.861 75.237 Z"/>
        <path id="path3" fill="#ffffff" stroke="none" d="M 64.447998 84.263 C 65.523354 84.328537 66.598892 84.137627 67.585999 83.706001 C 68.248459 83.365829 68.648544 82.667534 68.607002 81.923996 C 68.631638 81.129845 68.256012 80.376343 67.607002 79.917999 C 66.574013 79.234467 65.464859 78.673676 64.302002 78.247002 C 63.558001 77.951001 62.846001 77.647667 62.166 77.336998 C 61.530029 77.054123 60.936638 76.683884 60.403 76.237 C 59.90691 75.816017 59.50256 75.297646 59.215 74.713997 C 58.898033 74.028267 58.745323 73.278076 58.769001 72.522995 C 58.709286 70.942078 59.413746 69.42897 60.661999 68.457001 C 62.161018 67.38324 63.981968 66.854004 65.822998 66.957001 C 66.36898 66.957352 66.914505 66.988403 67.457001 67.050003 C 68.001002 67.112666 68.50867 67.186996 68.980003 67.272995 C 69.450005 67.360001 69.863998 67.453995 70.223999 67.552002 C 70.584 67.649994 70.861 67.737999 71.060005 67.811996 L 70.429001 70.783005 C 69.870354 70.517654 69.285057 70.3125 68.682999 70.170998 C 67.747543 69.94313 66.786652 69.836594 65.824005 69.854004 C 64.947914 69.833694 64.080544 70.031631 63.299999 70.43 C 62.613991 70.761345 62.19067 71.468849 62.223 72.229996 C 62.214573 72.614799 62.297146 72.996155 62.464001 73.343002 C 62.643093 73.686317 62.897423 73.984741 63.208 74.215996 C 63.592209 74.505966 64.00946 74.749329 64.451004 74.941002 C 64.946335 75.163668 65.540667 75.397001 66.234001 75.640999 C 67.150002 75.988335 67.966667 76.328669 68.683998 76.662003 C 69.349106 76.964294 69.967674 77.359955 70.521004 77.836998 C 71.026802 78.281525 71.42659 78.83371 71.691002 79.453003 C 71.982948 80.191032 72.122093 80.980629 72.100006 81.774002 C 72.189468 83.37735 71.436333 84.911301 70.112999 85.820999 C 68.406166 86.837341 66.432823 87.316132 64.450005 87.195 C 63.099785 87.236168 61.750286 87.092506 60.438999 86.767998 C 59.772419 86.584396 59.115578 86.367119 58.471001 86.116997 L 59.102001 83.147003 C 59.498 83.29567 60.129332 83.518669 60.995998 83.816002 C 62.115364 84.148613 63.280834 84.29953 64.447998 84.263 Z"/>
        <path id="path4" fill="#ffffff" stroke="none" d="M 74.541 86.750999 L 74.541 58.529999 L 77.995003 57.936001 L 77.995003 67.813004 C 78.662613 67.558426 79.352173 67.365616 80.055 67.237 C 80.771652 67.103699 81.499062 67.036751 82.228004 67.037003 C 83.533302 66.995911 84.833588 67.216934 86.052002 67.686996 C 87.005875 68.074112 87.843842 68.700607 88.485001 69.505997 C 89.112442 70.333939 89.549805 71.289917 89.765999 72.306 C 90.022629 73.488541 90.146729 74.695984 90.136002 75.905998 L 90.136002 86.750999 L 86.681999 86.750999 L 86.681999 76.651001 C 86.696228 75.630722 86.615547 74.611336 86.441002 73.605995 C 86.324219 72.87574 86.051353 72.179245 85.640999 71.563995 C 85.270729 71.045403 84.752937 70.650269 84.154999 70.43 C 83.415703 70.175369 82.636635 70.055801 81.855003 70.076996 C 81.469818 70.077972 81.085068 70.103027 80.703003 70.152 C 80.303001 70.201004 79.929001 70.257996 79.57 70.318001 C 79.211006 70.377998 78.889 70.447998 78.604004 70.522995 C 78.396614 70.573242 78.192276 70.635345 77.992004 70.709 L 77.992004 86.750999 Z"/>
        <path id="path5" fill="#ffffff" stroke="none" d="M 95.451004 63.952 C 94.864586 63.964661 94.297089 63.744209 93.873001 63.339001 C 93.009148 62.4086 93.009148 60.969398 93.873001 60.039001 C 94.766655 59.221737 96.136345 59.221737 97.029999 60.039001 C 97.893852 60.969398 97.893852 62.4086 97.029999 63.339001 C 96.605843 63.74474 96.037819 63.96526 95.451004 63.952 Z M 97.196999 86.751999 L 93.743004 86.751999 L 93.743004 67.443001 L 97.201004 67.443001 L 97.201004 86.751999 Z"/>
        <path id="path6" fill="#ffffff" stroke="none" d="M 108.221001 67.035004 C 108.520996 67.035004 108.857994 67.052002 109.241997 67.089996 C 109.625999 67.128006 110.002998 67.177002 110.375999 67.238998 C 110.749001 67.301003 111.086998 67.362 111.395996 67.425003 C 111.627792 67.468475 111.857117 67.524216 112.083 67.592003 L 111.489998 70.598999 C 111.046158 70.454269 110.594009 70.336388 110.136002 70.246002 C 109.333977 70.096245 108.518707 70.029228 107.702995 70.046005 C 107.060043 70.044609 106.418762 70.111649 105.790001 70.246002 C 105.158663 70.38267 104.744329 70.47567 104.546997 70.525002 L 104.546997 86.747002 L 101.089996 86.747002 L 101.089996 68.259003 C 102.085266 67.912903 103.102531 67.633621 104.134995 67.423004 C 105.479607 67.150635 106.849159 67.020584 108.221001 67.035004 Z"/>
        <path id="path7" fill="#ffffff" stroke="none" d="M 112.134995 77.137001 C 112.103416 75.612518 112.355354 74.095436 112.877998 72.662994 C 113.313927 71.483383 113.982887 70.403595 114.845001 69.487999 C 115.639076 68.661522 116.601929 68.015869 117.667999 67.595001 C 118.707008 67.178986 119.815796 66.964836 120.934998 66.964005 C 123.19381 66.822227 125.394196 67.717041 126.912994 69.395004 C 128.299662 71.016332 128.992996 73.485998 128.992996 76.804001 L 128.992996 77.379997 C 128.993942 77.597221 128.981598 77.814293 128.956009 78.029999 L 115.736 78.029999 C 115.755302 79.712029 116.374458 81.331917 117.481995 82.598 C 118.788422 83.742363 120.504585 84.305275 122.235001 84.156998 C 123.265327 84.176697 124.294228 84.070923 125.298996 83.842003 C 125.940765 83.694214 126.567955 83.489059 127.172997 83.228996 L 127.655998 86.128998 C 126.948578 86.447617 126.207115 86.684486 125.445999 86.834999 C 124.269829 87.095589 123.067604 87.220078 121.862999 87.206001 C 120.372833 87.240929 118.89035 86.982353 117.5 86.445 C 116.343445 85.98613 115.3078 85.267647 114.473 84.345001 C 113.664932 83.424835 113.063423 82.342201 112.709 81.169998 C 112.31427 79.862549 112.120728 78.502663 112.134995 77.137001 Z M 125.392998 75.237 C 125.470551 73.857986 125.053947 72.49649 124.217995 71.397003 C 123.412445 70.395737 122.177757 69.83857 120.893997 69.897003 C 120.166977 69.881638 119.446861 70.040741 118.793999 70.361 C 118.205338 70.657089 117.681755 71.067787 117.253998 71.569 C 116.826515 72.074722 116.492928 72.652817 116.268997 73.276001 C 116.035782 73.910965 115.879997 74.571732 115.805 75.244003 Z"/>
        <path id="path8" fill="#ffffff" stroke="none" d="M 150.121002 87.307999 C 148.43309 87.330406 146.756638 87.027908 145.182999 86.417 C 143.730804 85.845009 142.424194 84.956856 141.358002 83.817001 C 140.24704 82.601784 139.405624 81.165359 138.889008 79.601997 C 138.27858 77.752441 137.983475 75.813416 138.016006 73.865997 C 137.981079 71.909927 138.314545 69.964752 138.999008 68.132004 C 139.590393 66.562408 140.493164 65.128662 141.653 63.917 C 142.75621 62.786335 144.085007 61.900475 145.553009 61.317001 C 147.065338 60.717014 148.679031 60.41383 150.306 60.424 C 151.269943 60.416084 152.232788 60.490688 153.184006 60.646999 C 153.936737 60.772282 154.680618 60.945976 155.410995 61.167 C 155.939209 61.32497 156.454422 61.523563 156.951996 61.761002 C 157.231735 61.895676 157.504425 62.044537 157.768997 62.207001 L 156.729004 65.177002 C 156.422318 64.98703 156.098984 64.825363 155.763 64.694 C 155.342997 64.521332 154.866664 64.347997 154.334 64.173996 C 153.762451 63.991909 153.179077 63.849239 152.587997 63.747002 C 151.956757 63.635616 151.316986 63.579735 150.675995 63.580002 C 149.414871 63.560574 148.163254 63.800892 146.999008 64.285995 C 145.926529 64.744362 144.973953 65.443405 144.214996 66.329002 C 143.41423 67.282333 142.813934 68.38736 142.449997 69.578003 C 142.025009 70.96698 141.818542 72.413589 141.837997 73.865997 C 141.821625 75.284309 142.003372 76.69796 142.378006 78.066002 C 142.694656 79.245834 143.243347 80.350708 143.992004 81.316002 C 144.710144 82.219948 145.633286 82.939819 146.684998 83.416 C 147.872955 83.933899 149.159378 84.187088 150.455002 84.157997 C 151.84697 84.193733 153.236343 84.018753 154.576004 83.639 C 155.414246 83.389572 156.233109 83.079071 157.026001 82.709999 L 157.955994 85.68 C 157.66217 85.865143 157.350632 86.020576 157.026001 86.143997 C 156.482666 86.362602 155.924622 86.542717 155.356003 86.682999 C 154.58493 86.875175 153.803711 87.024078 153.016006 87.128998 C 152.056366 87.256287 151.089005 87.316101 150.121002 87.307999 Z"/>
        <path id="path9" fill="#ffffff" stroke="none" d="M 176.598007 77.098 C 176.618362 78.512184 176.39267 79.919136 175.931 81.255997 C 175.519958 82.432823 174.882645 83.517868 174.054993 84.449997 C 173.256271 85.336662 172.274704 86.039497 171.177994 86.510002 C 168.847717 87.475525 166.229279 87.475525 163.899002 86.510002 C 162.8022 86.039665 161.820587 85.336807 161.022003 84.449997 C 160.193954 83.518158 159.556595 82.433029 159.145996 81.255997 C 158.255829 78.560936 158.255829 75.651062 159.145996 72.956001 C 159.553177 71.771698 160.190765 70.67971 161.022003 69.742996 C 161.82048 68.856071 162.802124 68.153198 163.899002 67.682999 C 166.229279 66.717468 168.847717 66.717468 171.177994 67.682999 C 172.274307 68.154198 173.255753 68.856934 174.054993 69.742996 C 174.885788 70.680786 175.523315 71.773331 175.931 72.958 C 176.389603 74.289413 176.615234 75.689926 176.598007 77.098 Z M 172.998001 77.098 C 173.097839 75.25618 172.581314 73.433578 171.529999 71.917999 C 170.557968 70.708649 169.090073 70.005203 167.538498 70.005203 C 165.986923 70.005203 164.519028 70.708649 163.546997 71.917999 C 162.496033 73.433708 161.979874 75.256294 162.080002 77.098 C 161.979874 78.939705 162.496033 80.762291 163.546997 82.278 C 164.519028 83.48735 165.986923 84.190796 167.538498 84.190796 C 169.090073 84.190796 170.557968 83.48735 171.529999 82.278 C 172.580612 80.762169 173.09642 78.93959 172.996002 77.098 Z"/>
        <path id="path10" fill="#ffffff" stroke="none" d="M 194.835999 86.195 C 194.042002 86.395002 192.996668 86.605003 191.699997 86.825005 C 190.207336 87.062538 188.697372 87.174263 187.186005 87.159004 C 185.90509 87.195473 184.629898 86.974442 183.436005 86.509003 C 182.475296 86.116936 181.631592 85.484329 180.986008 84.671997 C 180.349167 83.842728 179.893967 82.888725 179.649994 81.872002 C 179.365784 80.699203 179.228073 79.495689 179.240005 78.289001 L 179.240005 67.443001 L 182.695007 67.443001 L 182.695007 77.542999 C 182.695007 79.895665 183.066004 81.579333 183.807999 82.594002 C 184.730469 83.689453 186.133972 84.259308 187.559006 84.117004 C 187.929001 84.117004 188.311005 84.105003 188.708008 84.080002 C 189.104996 84.055 189.475006 84.024002 189.822998 83.987 C 190.171005 83.950005 190.486008 83.912003 190.770004 83.875999 C 190.978256 83.855896 191.183563 83.812286 191.382004 83.746002 L 191.382004 67.445999 L 194.835007 67.445999 Z"/>
        <path id="path11" fill="#ffffff" stroke="none" d="M 198.731003 67.999001 C 199.522344 67.799004 200.575012 67.589005 201.889008 67.369003 C 203.386765 67.131973 204.901688 67.020248 206.418015 67.035004 C 207.723618 66.994049 209.024216 67.215073 210.243011 67.684998 C 211.19664 68.073036 212.034714 68.699356 212.677002 69.503998 C 213.304596 70.331726 213.741669 71.287819 213.957001 72.304001 C 214.213577 73.486549 214.337677 74.693985 214.327011 75.903999 L 214.327011 86.754005 L 210.873001 86.754005 L 210.873001 76.653999 C 210.887222 75.633728 210.806549 74.614342 210.632004 73.609001 C 210.515228 72.878738 210.242355 72.182251 209.832001 71.567001 C 209.461243 71.048882 208.943619 70.65387 208.346008 70.432999 C 207.60672 70.178352 206.827637 70.058777 206.046005 70.080002 C 205.67601 70.080002 205.291 70.094002 204.894012 70.117004 C 204.497009 70.139999 204.121002 70.173996 203.762009 70.210007 C 203.403 70.246002 203.081009 70.290001 202.796005 70.339996 C 202.511002 70.389999 202.305008 70.427002 202.182007 70.451004 L 202.182007 86.750999 L 198.731003 86.750999 L 198.731003 67.999001 Z"/>
        <path id="path12" fill="#ffffff" stroke="none" d="M 221.281998 67.442001 L 228.598999 67.442001 L 228.598999 70.342003 L 221.281998 70.342003 L 221.281998 79.252998 C 221.265167 80.05896 221.340652 80.864204 221.507004 81.653 C 221.611847 82.192749 221.839371 82.70118 222.171997 83.139 C 222.464203 83.493935 222.851746 83.757965 223.289001 83.900002 C 223.793503 84.056732 224.319778 84.132011 224.847992 84.123001 C 225.697464 84.15123 226.54538 84.031792 227.354004 83.769997 C 227.986664 83.534665 228.425995 83.367999 228.671997 83.269997 L 229.341995 86.128998 C 228.752686 86.3909 228.144669 86.608505 227.522995 86.779999 C 226.556427 87.053062 225.555283 87.184097 224.550995 87.168999 C 223.446152 87.203331 222.344437 87.033836 221.300995 86.668999 C 220.490326 86.366318 219.777939 85.847588 219.240997 85.168999 C 218.690811 84.435043 218.315598 83.585075 218.143997 82.683998 C 217.920517 81.564766 217.814606 80.425247 217.828003 79.283997 L 217.828003 62.058002 L 221.280991 61.464001 L 221.280991 67.442001 Z"/>
        <path id="path13" fill="#ffffff" stroke="none" d="M 229.664001 90.354004 C 230.006821 90.501167 230.361404 90.619247 230.724014 90.707001 C 231.14183 90.816994 231.571945 90.873444 232.004013 90.875 C 233.140854 90.942154 234.266754 90.620918 235.197006 89.964005 C 236.110229 89.155327 236.822403 88.144928 237.277008 87.013 C 235.71701 84.041667 234.262675 80.891335 232.914001 77.562004 C 231.57489 74.265991 230.452164 70.886154 229.553009 67.444 L 233.266006 67.444 C 233.538671 68.557332 233.867004 69.757334 234.251007 71.044006 C 234.63501 72.330668 235.061676 73.654999 235.531006 75.016998 C 236.00234 76.378332 236.510005 77.739998 237.054001 79.101997 C 237.598007 80.464002 238.168009 81.776004 238.764008 83.038002 C 239.706675 80.438001 240.523341 77.863335 241.214005 75.314003 C 241.904668 72.764671 242.560669 70.140671 243.182007 67.442001 L 246.74501 67.442001 C 245.853673 71.081334 244.864003 74.578334 243.776001 77.932999 C 242.688009 81.287669 241.511678 84.425003 240.247009 87.345001 C 239.814178 88.344971 239.299072 89.307274 238.707001 90.222 C 238.223663 90.970627 237.628418 91.640739 236.942001 92.209 C 236.299149 92.728233 235.562439 93.118996 234.772003 93.360001 C 233.885513 93.618698 232.965393 93.743736 232.042007 93.731003 C 231.75679 93.730095 231.471893 93.711395 231.189011 93.675003 C 230.889008 93.638 230.599014 93.587997 230.315002 93.528 C 230.031006 93.468002 229.769012 93.398003 229.534012 93.322998 C 229.363068 93.273148 229.195969 93.210983 229.034012 93.137001 Z"/>
    </g>
    <path id="path14" fill="#e27866" stroke="none" d="M 225.59201 15.451004 C 225.587112 15.410271 225.578415 15.370094 225.56601 15.331001 C 225.497009 15.251999 225.658997 15.331001 225.319 14.931 L 225.326004 14.925003 C 225.306717 14.904251 225.285995 14.884865 225.264008 14.866997 C 225.190277 14.796356 225.10083 14.744263 225.003006 14.715004 C 224.88797 14.663696 224.762924 14.638748 224.637009 14.641998 L 224.572006 14.650002 C 224.518402 14.652702 224.465179 14.6604 224.41301 14.672997 C 224.170013 14.728699 223.932663 14.806694 223.70401 14.905998 C 216.2043 17.803947 208.467285 20.045692 200.580002 21.606003 C 197.400085 16.879257 194.522339 11.956093 191.964005 6.865997 C 190.906998 4.765999 190.102005 3.037003 189.557007 1.831001 C 189.281998 1.231003 189.072006 0.762001 188.921997 0.431 C 188.848007 0.264 188.786011 0.137001 188.735001 0.030998 C 188.709579 -0.026016 188.678421 -0.080299 188.641998 -0.130997 C 188.614883 -0.181496 188.581253 -0.228226 188.542007 -0.269997 C 188.442001 -0.307999 188.48201 -0.526001 187.811996 -0.619003 C 187.112 -0.526001 187.149002 -0.308998 187.056 -0.269997 C 186.881882 -0.015923 186.737274 0.257172 186.625 0.543999 C 183.374924 7.886391 179.493698 14.932831 175.025009 21.604004 C 169.489792 20.518188 164.027542 19.088753 158.669998 17.323997 C 156.436996 16.587997 154.643005 15.931999 153.380997 15.463997 C 152.751007 15.226997 152.253998 15.037003 151.89801 14.905998 C 151.655457 14.797668 151.401535 14.716827 151.141006 14.665001 L 151.141006 14.665001 C 151.088074 14.656006 151.034637 14.65033 150.981003 14.648003 L 150.960999 14.648003 C 150.840042 14.640846 150.719162 14.663513 150.609009 14.713997 C 150.578003 14.726997 150.544006 14.739998 150.509003 14.755997 C 150.424576 14.803558 150.346313 14.861328 150.276001 14.928001 C 150.202042 14.991966 150.1427 15.071091 150.102005 15.160004 C 150.034286 15.27948 149.996872 15.413719 149.992996 15.551003 C 149.992996 15.612999 149.992996 15.612999 149.992996 15.617004 C 150.031525 15.940361 150.120956 16.255592 150.258011 16.551003 C 153.344894 24.52137 155.68396 32.761505 157.24501 41.165001 C 159.001007 48.255001 162.013 54.694 168.182999 57.448002 C 170.303543 58.422619 172.613327 58.916401 174.947006 58.894001 C 179.727203 58.865093 184.319946 57.03093 187.805008 53.759003 C 191.286743 57.032116 195.878387 58.865986 200.656998 58.892002 C 202.999786 58.914261 205.318497 58.418079 207.447006 57.439003 C 213.591003 54.698002 216.60701 48.254002 218.347 41.224998 C 219.458145 35.159943 220.987457 29.179001 222.924011 23.324997 C 223.660004 21.092003 224.309998 19.298004 224.786011 18.037003 C 225.016998 17.405998 225.206009 16.909004 225.343002 16.548004 C 225.434402 16.325523 225.510254 16.096977 225.570007 15.863998 C 225.593063 15.783707 225.604507 15.700531 225.604004 15.617004 L 225.604004 15.609001 L 225.604004 15.609001 C 225.60701 15.556038 225.602966 15.502907 225.59201 15.451004 Z M 199.845001 23.945999 C 202.459 28.280998 204.266998 32.695 204.259003 36.796997 C 204.268158 38.377357 203.982254 39.945541 203.416 41.420998 C 201.755005 46.171001 196.587997 50.615002 190.064011 51.372002 C 192.747391 48.032814 194.219818 43.882729 194.240997 39.598999 C 194.263947 37.254433 193.765244 34.934097 192.781006 32.806 C 191.957916 31.003334 190.778976 29.385612 189.315002 28.050003 C 192.396973 26.017883 195.826843 24.570747 199.432999 23.780998 L 199.432999 23.780998 C 199.522003 23.764 199.608002 23.746002 199.699005 23.730003 C 199.747009 23.804001 199.796005 23.874001 199.845001 23.945999 Z M 175.902008 23.731003 L 176.130005 23.774002 C 179.752106 24.562843 183.197495 26.013474 186.292999 28.053001 C 184.821884 29.396309 183.636612 31.022354 182.807999 32.834 C 181.831863 34.954422 181.337677 37.264793 181.361008 39.598999 C 181.381897 43.884575 182.857056 48.03611 185.544998 51.374001 C 179.014999 50.618 173.845001 46.174 172.197006 41.449997 C 171.625259 39.967773 171.335953 38.391647 171.344009 36.803001 C 171.335999 32.683998 173.154999 28.253998 175.786011 23.903 C 175.824997 23.846001 175.85701 23.786003 175.901001 23.731003 Z M 191.042007 33.609001 C 191.909088 35.48597 192.347031 37.532562 192.324005 39.599998 C 192.29425 43.845448 190.681381 47.92701 187.80101 51.046001 C 184.917496 47.927948 183.303253 43.844894 183.275009 39.598 C 183.255188 37.540962 183.689514 35.50489 184.546997 33.635002 C 185.30777 31.961113 186.418762 30.469894 187.805008 29.262001 C 189.182816 30.462509 190.286713 31.944939 191.042007 33.609001 Z M 187.791 2.629997 C 187.795456 2.622238 187.799469 2.614227 187.803009 2.606003 C 190.864899 9.358704 194.459595 15.856903 198.553009 22.039001 C 194.70018 22.91198 191.051437 24.518547 187.806 26.771004 C 184.556595 24.518005 180.903763 22.911766 177.046997 22.040001 C 180.098816 17.441879 182.870514 12.663872 185.347 7.732002 C 186.421997 5.599998 187.236008 3.847 187.791 2.629997 Z M 168.983002 55.708 C 163.671997 53.378002 160.807999 47.608002 159.117004 40.765999 C 157.994812 34.653854 156.451813 28.626511 154.499008 22.726997 C 153.75 20.463997 153.087006 18.641998 152.611008 17.365997 C 152.589996 17.310997 152.572006 17.257004 152.552002 17.205002 C 159.491959 19.816841 166.629288 21.870689 173.896011 23.347 C 171.302002 27.747002 169.432007 32.286003 169.425003 36.802002 C 169.417282 38.61702 169.747223 40.417641 170.39801 42.112 C 172.354004 47.600002 178.121002 52.473003 185.434006 53.283001 C 182.450333 55.653404 178.757599 56.954151 174.947006 56.977001 C 172.88974 56.999035 170.853088 56.565681 168.983002 55.708 Z M 216.473999 40.821999 C 214.800003 47.610001 211.929001 53.375 206.646011 55.693001 C 204.768738 56.558338 202.723022 56.996853 200.656006 56.977001 C 196.843536 56.953888 193.149323 55.650879 190.166 53.277 C 197.477997 52.470001 203.251999 47.598003 205.216003 42.083 C 205.858658 40.393723 206.184113 38.600372 206.17601 36.792999 C 206.167999 32.259003 204.28801 27.709 201.708008 23.338997 C 207.060089 22.255585 212.343063 20.855118 217.529007 19.145004 C 219.792999 18.398003 221.615997 17.734001 222.889008 17.258003 L 223.055008 17.197998 C 220.164291 24.861656 217.961914 32.767563 216.473999 40.821999 Z"/>
</svg>
